<?xml version="1.0" encoding="UTF-8"?>
<!-- Created with Inkscape (http://www.inkscape.org/) -->
<svg width="474.29" height="474.22" version="1.1" viewBox="0 0 125.49 125.47" xmlns="http://www.w3.org/2000/svg">
 <g transform="translate(-99.654 -33.049)">
  <path d="m161.59 33.049a62.765 62.765 0 0 0-15.225 2.096l-3.5683 17.065a47.808 47.808 0 0 0-8.6961 5.0782l-16.621-5.2917a62.765 62.765 0 0 0-9.3198 12.21l9.5555 14.608a47.808 47.808 0 0 0-2.5833 9.772l-15.474 8.0005a62.765 62.765 0 0 0 2.096 15.225l17.065 3.5683a47.808 47.808 0 0 0 5.0782 8.6961l-5.2917 16.621a62.765 62.765 0 0 0 12.21 9.3198l14.608-9.5555a47.808 47.808 0 0 0 9.772 2.5833l8.0006 15.474a62.765 62.765 0 0 0 15.225-2.096l3.5683-17.065a47.808 47.808 0 0 0 8.6961-5.0782l16.621 5.2917a62.765 62.765 0 0 0 9.3198-12.21l-9.5555-14.608a47.808 47.808 0 0 0 2.5833-9.772l15.494-8.0109a62.765 62.765 0 0 0-2.0686-15.205l-17.08-3.5714a47.808 47.808 0 0 0-5.0989-8.738l5.2932-16.627a62.765 62.765 0 0 0-12.22-9.2806l-14.596 9.5472a47.808 47.808 0 0 0-9.7875-2.5735zm0.80306 30.952a31.783 31.783 0 0 1 31.783 31.783 31.783 31.783 0 0 1-31.783 31.783 31.783 31.783 0 0 1-31.783-31.783 31.783 31.783 0 0 1 31.783-31.783z" stroke-width="1.6096"/>
 </g>
</svg>
