<?xml version="1.0" encoding="UTF-8"?>
<!-- Created with Inkscape (http://www.inkscape.org/) -->
<svg width="569.31" height="424.01" version="1.1" viewBox="0 0 150.63 112.19" xmlns="http://www.w3.org/2000/svg">
 <g transform="translate(-94.019 -46.073)">
  <path d="m99.827 46.073c-3.2178 0-5.8084 2.5906-5.8084 5.8084v86.738c0 3.2178 2.5906 5.8084 5.8084 5.8084h139.01c3.2178 0 5.8084-2.5906 5.8084-5.8084v-86.738c0-3.2178-2.5906-5.8084-5.8084-5.8084zm0.42116 5.6699h138.17v87.015h-138.17z" stroke-width=".49124"/>
  <path d="m148.99 150.63c-1.0731 1.4058-3.5294 3.3831-7.6605 3.383l-1.1156 0.0171c-0.62236 0.0413-0.6162 0.26488-0.6162 0.41371 0 2.113 1.4297 3.8144 3.2059 3.8144h53.058c1.7762 0 3.2059-1.7014 3.2059-3.8144 0-0.14883 6e-3 -0.3724-0.61621-0.41371l-1.1156-0.0171c-4.1312 2e-5 -6.5875-1.9772-7.6606-3.383h-30.514z" stroke-width=".38648"/>
 </g>
</svg>
